mtllib livox_avia_fov.mtl

v  48.483265 -20.224383 -0.000000
v  48.483265 -20.224383 -0.000000
v  48.483265 -20.224383 -0.000000
v  48.483265 -20.224383 -0.000000
v  46.531757 -17.190785 9.649601
v  46.531757 -17.190785 9.649601
v  48.167198 -12.480746 16.558037
v  48.167198 -12.480746 16.558037
v  52.576714 -3.188375 22.189326
v  52.576714 -3.188375 22.189326
v  49.985412 10.120502 18.992324
v  49.985412 10.120502 18.992324
v  46.325078 16.635996 10.478118
v  46.325078 16.635996 10.478118
v  48.483265 20.224383 0.000000
v  48.483265 20.224383 0.000000
v  48.483265 20.224383 0.000000
v  48.483265 20.224383 0.000000
v  315.782201 208.783041 0.000000
v  315.782201 208.783041 0.000000
v  315.782201 208.783041 0.000000
v  315.782201 208.783041 0.000000
v  315.782178 188.735792 115.454244
v  315.782155 113.278783 203.533545
v  315.782131 -0.000000 232.399100
v  315.782108 -113.278766 203.533513
v  315.782085 -188.735733 115.454208
v  315.782131 -208.782992 -0.000000
v  315.782131 -208.782992 -0.000000
v  315.782131 -208.782992 -0.000000
v  315.782131 -208.782992 -0.000000
v  585.724147 399.206136 0.000000
v  585.724147 399.206136 0.000000
v  585.724147 399.206136 0.000000
v  585.724147 399.206136 0.000000
v  585.724100 360.786133 221.380080
v  585.724053 216.929729 391.316082
v  585.724007 -0.000000 447.890868
v  585.723960 -216.929694 391.316017
v  585.723914 -360.786015 221.380007
v  585.724007 -399.206038 -0.000000
v  585.724007 -399.206038 -0.000000
v  585.724007 -399.206038 -0.000000
v  585.724007 -399.206038 -0.000000
v  855.126518 589.248604 -0.000000
v  855.126518 589.248604 -0.000000
v  855.126518 589.248604 -0.000000
v  855.126518 555.132767 261.425744
v  855.126518 555.132767 261.425744
v  855.126518 475.158030 434.988072
v  855.126518 475.158030 434.988072
v  855.126518 201.518072 631.753551
v  855.126518 201.518072 631.753551
v  855.126518 0.014380 662.951418
v  855.126518 0.014380 662.951418
v  855.126518 -201.490838 631.762294
v  855.126518 -201.490838 631.762294
v  855.126518 -475.156243 434.990682
v  855.126518 -475.156243 434.990682
v  855.126518 -555.133924 261.421769
v  855.126518 -555.133924 261.421769
v  855.126518 -589.248604 0.000000
v  855.126518 -589.248604 0.000000
v  855.126518 -589.248604 0.000000
v  45.219920 -18.200002 0.000004
v  45.219920 -18.200002 0.000004
v  41.743571 -16.575872 0.000000
v  41.743571 -16.575872 0.000000
v  41.743571 -16.575872 0.000000
v  41.743571 -16.575872 0.000000
v  38.801263 -13.388792 7.624422
v  38.801263 -13.388792 7.624422
v  40.826984 -7.463574 14.391698
v  40.826984 -7.463574 14.391698
v  44.566590 -0.208185 17.695634
v  44.566590 -0.208185 17.695634
v  40.973260 7.294619 14.543079
v  40.973260 7.294619 14.543079
v  38.780320 13.349466 7.676401
v  38.780320 13.349466 7.676401
v  41.743571 16.575872 0.000000
v  41.743571 16.575872 0.000000
v  41.743571 16.575872 0.000000
v  41.743571 16.575872 0.000000
v  45.219920 18.200002 -0.000004
v  45.219920 18.200002 -0.000004
v  38.801263 13.388792 -7.624422
v  38.801263 13.388792 -7.624422
v  40.826984 7.463574 -14.391698
v  40.826984 7.463574 -14.391698
v  44.566590 0.208185 -17.695634
v  44.566590 0.208185 -17.695634
v  40.973260 -7.294619 -14.543079
v  40.973260 -7.294619 -14.543079
v  38.780320 -13.349466 -7.676401
v  38.780320 -13.349466 -7.676401
v  46.325078 -16.635996 -10.478118
v  46.325078 -16.635996 -10.478118
v  49.985412 -10.120502 -18.992324
v  49.985412 -10.120502 -18.992324
v  52.576714 3.188375 -22.189326
v  52.576714 3.188375 -22.189326
v  48.167198 12.480746 -16.558037
v  48.167198 12.480746 -16.558037
v  46.531757 17.190785 -9.649601
v  46.531757 17.190785 -9.649601
v  315.782131 -188.735763 -115.454226
v  315.782131 -113.278774 -203.533529
v  315.782131 0.000000 -232.399100
v  315.782131 113.278774 -203.533529
v  315.782131 188.735763 -115.454226
v  585.724007 -360.786074 -221.380043
v  585.724007 -216.929712 -391.316050
v  585.724007 0.000000 -447.890868
v  585.724007 216.929712 -391.316050
v  585.724007 360.786074 -221.380043
v  855.126518 -555.132767 -261.425744
v  855.126518 -555.132767 -261.425744
v  855.126518 -475.158030 -434.988072
v  855.126518 -475.158030 -434.988072
v  855.126518 -201.518072 -631.753551
v  855.126518 -201.518072 -631.753551
v  855.126518 -0.014380 -662.951418
v  855.126518 -0.014380 -662.951418
v  855.126518 201.490838 -631.762294
v  855.126518 201.490838 -631.762294
v  855.126518 475.156243 -434.990682
v  855.126518 475.156243 -434.990682
v  855.126518 555.133924 -261.421769
v  855.126518 555.133924 -261.421769
v  -0.000000 0.000000 0.000000
v  -0.000000 0.000000 0.000000
v  -0.000000 0.000000 0.000000
v  -0.000000 0.000000 0.000000

vt  0.055585 0.411867 0.000000
vt  0.055585 0.411867 0.000000
vt  0.055585 0.411867 0.000000
vt  0.055585 0.411867 0.000000
vt  0.066615 0.531857 0.000000
vt  0.066615 0.531857 0.000000
vt  0.093411 0.612496 0.000000
vt  0.093411 0.612496 0.000000
vt  0.144939 0.660870 0.000000
vt  0.144939 0.660870 0.000000
vt  0.214456 0.634507 0.000000
vt  0.214456 0.634507 0.000000
vt  0.253175 0.542860 0.000000
vt  0.253175 0.542860 0.000000
vt  0.266640 0.411867 0.000000
vt  0.266640 0.411867 0.000000
vt  0.266640 0.411867 0.000000
vt  0.266640 0.411867 0.000000
vt  0.317104 0.411867 0.000000
vt  0.317104 0.411867 0.000000
vt  0.317104 0.411867 0.000000
vt  0.317104 0.411867 0.000000
vt  0.304962 0.601787 0.000000
vt  0.253083 0.752438 0.000000
vt  0.161112 0.808101 0.000000
vt  0.069142 0.752438 0.000000
vt  0.017263 0.601787 0.000000
vt  0.005121 0.411867 0.000000
vt  0.005121 0.411867 0.000000
vt  0.005121 0.411867 0.000000
vt  0.005121 0.411867 0.000000
vt  0.320859 0.411867 0.000000
vt  0.320859 0.411867 0.000000
vt  0.320859 0.411867 0.000000
vt  0.320859 0.411867 0.000000
vt  0.308531 0.606311 0.000000
vt  0.255826 0.761406 0.000000
vt  0.161112 0.819582 0.000000
vt  0.066399 0.761406 0.000000
vt  0.013693 0.606311 0.000000
vt  0.001366 0.411867 0.000000
vt  0.001366 0.411867 0.000000
vt  0.001366 0.411867 0.000000
vt  0.001366 0.411867 0.000000
vt  0.322225 0.411867 0.000000
vt  0.322225 0.411867 0.000000
vt  0.322225 0.411867 0.000000
vt  0.314866 0.568633 0.000000
vt  0.314866 0.568633 0.000000
vt  0.296542 0.673169 0.000000
vt  0.296542 0.673169 0.000000
vt  0.222912 0.801215 0.000000
vt  0.222912 0.801215 0.000000
vt  0.161117 0.823733 0.000000
vt  0.161117 0.823733 0.000000
vt  0.099321 0.801221 0.000000
vt  0.099321 0.801221 0.000000
vt  0.025683 0.673171 0.000000
vt  0.025683 0.673171 0.000000
vt  0.007358 0.568631 0.000000
vt  0.007358 0.568631 0.000000
vt  0.000000 0.411867 0.000000
vt  0.000000 0.411867 0.000000
vt  0.000000 0.411867 0.000000
vt  0.058937 0.411867 0.000000
vt  0.058937 0.411867 0.000000
vt  0.060178 0.411867 0.000000
vt  0.060178 0.411867 0.000000
vt  0.060178 0.411867 0.000000
vt  0.060178 0.411867 0.000000
vt  0.072388 0.526568 0.000000
vt  0.072388 0.526568 0.000000
vt  0.112830 0.620326 0.000000
vt  0.112830 0.620326 0.000000
vt  0.159865 0.647920 0.000000
vt  0.159865 0.647920 0.000000
vt  0.208159 0.621824 0.000000
vt  0.208159 0.621824 0.000000
vt  0.249639 0.527422 0.000000
vt  0.249639 0.527422 0.000000
vt  0.262047 0.411867 0.000000
vt  0.262047 0.411867 0.000000
vt  0.262047 0.411867 0.000000
vt  0.262047 0.411867 0.000000
vt  0.263287 0.411867 0.000000
vt  0.263287 0.411867 0.000000
vt  0.249837 0.297165 0.000000
vt  0.249837 0.297165 0.000000
vt  0.209394 0.203407 0.000000
vt  0.209394 0.203407 0.000000
vt  0.162360 0.175813 0.000000
vt  0.162360 0.175813 0.000000
vt  0.114066 0.201910 0.000000
vt  0.114066 0.201910 0.000000
vt  0.072586 0.296311 0.000000
vt  0.072586 0.296311 0.000000
vt  0.069049 0.280873 0.000000
vt  0.069049 0.280873 0.000000
vt  0.107769 0.189226 0.000000
vt  0.107769 0.189226 0.000000
vt  0.177286 0.162864 0.000000
vt  0.177286 0.162864 0.000000
vt  0.228813 0.211238 0.000000
vt  0.228813 0.211238 0.000000
vt  0.255610 0.291877 0.000000
vt  0.255610 0.291877 0.000000
vt  0.017263 0.221947 0.000000
vt  0.069142 0.071295 0.000000
vt  0.161112 0.015632 0.000000
vt  0.253083 0.071295 0.000000
vt  0.304962 0.221947 0.000000
vt  0.013693 0.217422 0.000000
vt  0.066399 0.062328 0.000000
vt  0.161112 0.004151 0.000000
vt  0.255826 0.062328 0.000000
vt  0.308531 0.217422 0.000000
vt  0.007359 0.255100 0.000000
vt  0.007359 0.255100 0.000000
vt  0.025683 0.150564 0.000000
vt  0.025683 0.150564 0.000000
vt  0.099313 0.022518 0.000000
vt  0.099313 0.022518 0.000000
vt  0.161108 0.000000 0.000000
vt  0.161108 0.000000 0.000000
vt  0.222904 0.022512 0.000000
vt  0.222904 0.022512 0.000000
vt  0.296541 0.150562 0.000000
vt  0.296541 0.150562 0.000000
vt  0.314866 0.255103 0.000000
vt  0.314866 0.255103 0.000000
vt  1.000000 1.000000 0.000000
vt  1.000000 1.000000 0.000000
vt  1.000000 1.000000 0.000000
vt  1.000000 1.000000 0.000000

vn  -0.576432 -0.817145 -0.000000
vn  -0.576433 -0.817145 0.000048
vn  -0.576433 -0.817145 0.000004
vn  -0.576432 -0.817145 -0.000000
vn  -0.594749 -0.740161 0.313744
vn  -0.594776 -0.740048 0.313961
vn  -0.616189 -0.350669 0.705225
vn  -0.616195 -0.350600 0.705254
vn  -0.622995 -0.048770 0.780704
vn  -0.622966 -0.048779 0.780727
vn  -0.617482 0.223089 0.754286
vn  -0.617495 0.222885 0.754336
vn  -0.599098 0.713465 0.363385
vn  -0.599138 0.713235 0.363771
vn  -0.576432 0.817145 0.000000
vn  -0.576433 0.817145 -0.000004
vn  -0.576433 0.817145 -0.000048
vn  -0.576432 0.817145 0.000000
vn  -0.576432 0.817145 -0.000000
vn  -0.576432 0.817145 -0.000000
vn  -0.576432 0.817145 -0.000000
vn  -0.576432 0.817145 -0.000000
vn  -0.593890 0.745428 0.302707
vn  -0.622043 0.390394 0.678715
vn  -0.623880 -0.000000 0.781520
vn  -0.622043 -0.390394 0.678715
vn  -0.593890 -0.745428 0.302707
vn  -0.576432 -0.817145 0.000000
vn  -0.576432 -0.817145 0.000000
vn  -0.576432 -0.817145 0.000000
vn  -0.576432 -0.817145 0.000000
vn  -0.576432 0.817145 -0.000000
vn  -0.576432 0.817145 -0.000000
vn  -0.576432 0.817145 -0.000000
vn  -0.576432 0.817145 -0.000000
vn  -0.593815 0.745827 0.301870
vn  -0.621967 0.396537 0.675215
vn  -0.623880 -0.000000 0.781520
vn  -0.621967 -0.396537 0.675215
vn  -0.593815 -0.745827 0.301870
vn  -0.576432 -0.817145 0.000000
vn  -0.576432 -0.817145 0.000000
vn  -0.576432 -0.817145 0.000000
vn  -0.576432 -0.817145 0.000000
vn  -0.576432 0.817145 -0.000000
vn  -0.576432 0.817145 -0.000000
vn  1.000000 0.000000 0.000000
vn  -0.587244 0.777407 0.225351
vn  1.000000 0.000000 0.000000
vn  -0.607210 0.655695 0.448732
vn  1.000000 0.000000 0.000000
vn  -0.623577 0.238951 0.744348
vn  1.000000 0.000000 0.000000
vn  -0.623880 0.000017 0.781520
vn  1.000000 0.000000 0.000000
vn  -0.623578 -0.238917 0.744359
vn  1.000000 0.000000 0.000000
vn  -0.607210 -0.655692 0.448736
vn  1.000000 0.000000 0.000000
vn  -0.587243 -0.777408 0.225347
vn  1.000000 0.000000 0.000000
vn  -0.576432 -0.817145 0.000000
vn  -0.576432 -0.817145 0.000000
vn  1.000000 0.000000 0.000000
vn  -0.476022 -0.879433 0.000062
vn  -0.476022 -0.879433 -0.000013
vn  -0.369057 -0.929407 0.000087
vn  -0.369057 -0.929407 -0.000044
vn  -0.369056 -0.929407 0.000000
vn  -0.369056 -0.929407 0.000000
vn  -0.369052 -0.807657 0.459882
vn  -0.369056 -0.807634 0.459918
vn  -0.369070 -0.427865 0.825057
vn  -0.369056 -0.427877 0.825057
vn  -0.369058 -0.010979 0.929342
vn  -0.369056 -0.010934 0.929343
vn  -0.369072 0.416690 0.830756
vn  -0.369056 0.416698 0.830759
vn  -0.369055 0.805724 0.463257
vn  -0.369056 0.805697 0.463303
vn  -0.369057 0.929407 0.000044
vn  -0.369057 0.929407 -0.000087
vn  -0.369056 0.929407 0.000000
vn  -0.369056 0.929407 0.000000
vn  -0.476022 0.879433 0.000013
vn  -0.476022 0.879433 -0.000062
vn  -0.369052 0.807657 -0.459882
vn  -0.369056 0.807634 -0.459918
vn  -0.369070 0.427865 -0.825057
vn  -0.369056 0.427877 -0.825057
vn  -0.369058 0.010979 -0.929342
vn  -0.369056 0.010934 -0.929343
vn  -0.369072 -0.416690 -0.830756
vn  -0.369056 -0.416698 -0.830759
vn  -0.369055 -0.805724 -0.463257
vn  -0.369056 -0.805697 -0.463303
vn  -0.599138 -0.713235 -0.363771
vn  -0.599098 -0.713465 -0.363385
vn  -0.617495 -0.222885 -0.754336
vn  -0.617482 -0.223089 -0.754286
vn  -0.622966 0.048779 -0.780727
vn  -0.622995 0.048770 -0.780704
vn  -0.616195 0.350600 -0.705254
vn  -0.616189 0.350669 -0.705225
vn  -0.594776 0.740048 -0.313961
vn  -0.594749 0.740161 -0.313744
vn  -0.593890 -0.745428 -0.302707
vn  -0.622043 -0.390394 -0.678715
vn  -0.623880 0.000000 -0.781520
vn  -0.622043 0.390394 -0.678715
vn  -0.593890 0.745428 -0.302707
vn  -0.593815 -0.745827 -0.301870
vn  -0.621967 -0.396537 -0.675215
vn  -0.623880 0.000000 -0.781520
vn  -0.621967 0.396537 -0.675215
vn  -0.593815 0.745827 -0.301870
vn  -0.587244 -0.777407 -0.225351
vn  1.000000 0.000000 0.000000
vn  -0.607210 -0.655695 -0.448732
vn  1.000000 0.000000 0.000000
vn  -0.623577 -0.238951 -0.744348
vn  1.000000 0.000000 0.000000
vn  -0.623880 -0.000017 -0.781520
vn  1.000000 0.000000 0.000000
vn  -0.623578 0.238917 -0.744359
vn  1.000000 0.000000 0.000000
vn  -0.607210 0.655692 -0.448736
vn  1.000000 0.000000 0.000000
vn  -0.587243 0.777408 -0.225347
vn  1.000000 0.000000 0.000000
vn  -0.369056 0.929407 0.000000
vn  -0.369056 -0.929407 0.000000
vn  -0.369056 -0.929407 0.000000
vn  -0.369056 0.929407 0.000000


g 0
g 1
usemtl MTL0
f 27/27/27  5/5/5  1/1/1
f 65/65/65  2/2/2  6/6/6
f 28/28/28  27/27/27  1/1/1
f 98/98/98  30/30/30  4/4/4
f 95/95/95  3/3/3  66/66/66
f 97/97/97  3/3/3  95/95/95
f 27/27/27  7/7/7  5/5/5
f 71/71/71  6/6/6  8/8/8
f 67/67/67  65/65/65  6/6/6
f 71/71/71  67/67/67  6/6/6
f 26/26/26  9/9/9  7/7/7
f 73/73/73  8/8/8  10/10/10
f 27/27/27  26/26/26  7/7/7
f 73/73/73  71/71/71  8/8/8
f 25/25/25  11/11/11  9/9/9
f 75/75/75  10/10/10  12/12/12
f 26/26/26  25/25/25  9/9/9
f 75/75/75  73/73/73  10/10/10
f 24/24/24  13/13/13  11/11/11
f 77/77/77  12/12/12  14/14/14
f 25/25/25  24/24/24  11/11/11
f 77/77/77  75/75/75  12/12/12
f 19/19/19  15/15/15  13/13/13
f 79/79/79  14/14/14  16/16/16
f 23/23/23  19/19/19  13/13/13
f 24/24/24  23/23/23  13/13/13
f 79/79/79  77/77/77  14/14/14
f 111/111/111  18/18/18  21/21/21
f 85/85/85  79/79/79  16/16/16
f 105/105/105  86/86/86  17/17/17
f 111/111/111  106/106/106  18/18/18
f 32/32/32  19/19/19  23/23/23
f 116/116/116  21/21/21  34/34/34
f 116/116/116  111/111/111  21/21/21
f 36/36/36  23/23/23  24/24/24
f 36/36/36  32/32/32  23/23/23
f 37/37/37  24/24/24  25/25/25
f 37/37/37  36/36/36  24/24/24
f 38/38/38  25/25/25  26/26/26
f 38/38/38  37/37/37  25/25/25
f 39/39/39  26/26/26  27/27/27
f 39/39/39  38/38/38  26/26/26
f 40/40/40  27/27/27  28/28/28
f 40/40/40  39/39/39  27/27/27
f 41/41/41  40/40/40  28/28/28
f 107/107/107  43/43/43  30/30/30
f 107/107/107  30/30/30  98/98/98
f 45/45/45  32/32/32  36/36/36
f 129/129/129  34/34/34  46/46/46
f 129/129/129  116/116/116  34/34/34
f 50/50/50  36/36/36  37/37/37
f 48/48/48  45/45/45  36/36/36
f 50/50/50  48/48/48  36/36/36
f 52/52/52  37/37/37  38/38/38
f 52/52/52  50/50/50  37/37/37
f 56/56/56  38/38/38  39/39/39
f 54/54/54  52/52/52  38/38/38
f 56/56/56  54/54/54  38/38/38
f 58/58/58  39/39/39  40/40/40
f 58/58/58  56/56/56  39/39/39
f 60/60/60  40/40/40  41/41/41
f 60/60/60  58/58/58  40/40/40
f 62/62/62  60/60/60  41/41/41
f 112/112/112  63/63/63  43/43/43
f 112/112/112  43/43/43  107/107/107
f 64/64/64  47/47/47  49/49/49
f 118/118/118  47/47/47  64/64/64
f 130/130/130  47/47/47  118/118/118
f 61/61/61  49/49/49  51/51/51
f 64/64/64  49/49/49  61/61/61
f 59/59/59  51/51/51  53/53/53
f 61/61/61  51/51/51  59/59/59
f 57/57/57  53/53/53  55/55/55
f 59/59/59  53/53/53  57/57/57
f 117/117/117  63/63/63  112/112/112
f 95/95/95  66/66/66  68/68/68
f 133/133/133  70/70/70  72/72/72
f 131/131/131  96/96/96  69/69/69
f 133/133/133  72/72/72  74/74/74
f 133/133/133  74/74/74  76/76/76
f 133/133/133  76/76/76  78/78/78
f 133/133/133  78/78/78  80/80/80
f 85/85/85  81/81/81  79/79/79
f 133/133/133  80/80/80  84/84/84
f 105/105/105  82/82/82  86/86/86
f 105/105/105  87/87/87  82/82/82
f 131/131/131  83/83/83  88/88/88
f 103/103/103  89/89/89  87/87/87
f 131/131/131  88/88/88  90/90/90
f 105/105/105  103/103/103  87/87/87
f 101/101/101  91/91/91  89/89/89
f 131/131/131  90/90/90  92/92/92
f 103/103/103  101/101/101  89/89/89
f 99/99/99  93/93/93  91/91/91
f 131/131/131  92/92/92  94/94/94
f 101/101/101  99/99/99  91/91/91
f 97/97/97  95/95/95  93/93/93
f 131/131/131  94/94/94  96/96/96
f 99/99/99  97/97/97  93/93/93
f 108/108/108  98/98/98  100/100/100
f 108/108/108  107/107/107  98/98/98
f 109/109/109  100/100/100  102/102/102
f 109/109/109  108/108/108  100/100/100
f 110/110/110  102/102/102  104/104/104
f 110/110/110  109/109/109  102/102/102
f 111/111/111  104/104/104  106/106/106
f 111/111/111  110/110/110  104/104/104
f 112/112/112  107/107/107  108/108/108
f 113/113/113  108/108/108  109/109/109
f 113/113/113  112/112/112  108/108/108
f 114/114/114  109/109/109  110/110/110
f 114/114/114  113/113/113  109/109/109
f 115/115/115  110/110/110  111/111/111
f 115/115/115  114/114/114  110/110/110
f 116/116/116  115/115/115  111/111/111
f 119/119/119  112/112/112  113/113/113
f 119/119/119  117/117/117  112/112/112
f 121/121/121  113/113/113  114/114/114
f 121/121/121  119/119/119  113/113/113
f 125/125/125  114/114/114  115/115/115
f 123/123/123  121/121/121  114/114/114
f 125/125/125  123/123/123  114/114/114
f 127/127/127  115/115/115  116/116/116
f 127/127/127  125/125/125  115/115/115
f 129/129/129  127/127/127  116/116/116
f 130/130/130  118/118/118  120/120/120
f 128/128/128  120/120/120  122/122/122
f 130/130/130  120/120/120  128/128/128
f 126/126/126  122/122/122  124/124/124
f 128/128/128  122/122/122  126/126/126
