mtllib fov_2.mtl

v  151.021139 -106.601993 0.000000
v  151.021139 -106.601993 0.000000
v  151.021139 -106.601993 0.000000
v  0.000000 -0.068299 -0.000000
v  0.000000 -0.068299 -0.000000
v  0.000000 -0.068299 -0.000000
v  0.000000 -0.064865 0.021382
v  0.000000 -0.064865 0.021382
v  0.000000 -0.054937 0.040577
v  0.000000 -0.054937 0.040577
v  0.000000 -0.039759 0.055532
v  0.000000 -0.039759 0.055532
v  0.000000 -0.020800 0.065054
v  0.000000 -0.020800 0.065054
v  0.000000 0.000270 0.068297
v  0.000000 0.000270 0.068297
v  0.000000 0.021324 0.064883
v  0.000000 0.021324 0.064883
v  0.000000 0.040166 0.055239
v  0.000000 0.040166 0.055239
v  0.000000 0.055124 0.040324
v  0.000000 0.055124 0.040324
v  0.000000 0.064896 0.021289
v  0.000000 0.064896 0.021289
v  0.000000 0.068299 0.000000
v  0.000000 0.068299 0.000000
v  0.000000 0.068299 0.000000
v  151.021139 106.601993 0.000000
v  151.021139 106.601993 0.000000
v  151.021139 106.601993 0.000000
v  151.021139 102.282499 30.037846
v  151.021139 102.282499 30.037846
v  151.021139 89.674450 57.640890
v  151.021139 89.674450 57.640890
v  151.021139 69.799919 80.572649
v  151.021139 69.799919 80.572649
v  151.021139 44.274076 96.973142
v  151.021139 44.274076 96.973142
v  151.021139 15.171644 105.516817
v  151.021139 15.171644 105.516817
v  151.021139 -15.170464 105.516983
v  151.021139 -15.170464 105.516983
v  151.021139 -44.278291 96.971219
v  151.021139 -44.278291 96.971219
v  151.021139 -69.803131 80.569863
v  151.021139 -69.803131 80.569863
v  151.021139 -89.676542 57.637633
v  151.021139 -89.676542 57.637633
v  151.021139 -102.283365 30.034904
v  151.021139 -102.283365 30.034904
v  151.021139 102.283365 -30.034904
v  151.021139 102.283365 -30.034904
v  151.021139 89.676542 -57.637633
v  151.021139 89.676542 -57.637633
v  151.021139 69.803131 -80.569863
v  151.021139 69.803131 -80.569863
v  151.021139 44.278291 -96.971219
v  151.021139 44.278291 -96.971219
v  151.021139 15.170464 -105.516983
v  151.021139 15.170464 -105.516983
v  151.021139 -15.171644 -105.516817
v  151.021139 -15.171644 -105.516817
v  151.021139 -44.274076 -96.973142
v  151.021139 -44.274076 -96.973142
v  151.021139 -69.799919 -80.572649
v  151.021139 -69.799919 -80.572649
v  151.021139 -89.674450 -57.640890
v  151.021139 -89.674450 -57.640890
v  151.021139 -102.282499 -30.037846
v  151.021139 -102.282499 -30.037846
v  0.000000 0.064865 -0.021382
v  0.000000 0.064865 -0.021382
v  0.000000 0.054937 -0.040577
v  0.000000 0.054937 -0.040577
v  0.000000 0.039759 -0.055532
v  0.000000 0.039759 -0.055532
v  0.000000 0.020800 -0.065054
v  0.000000 0.020800 -0.065054
v  0.000000 -0.000270 -0.068297
v  0.000000 -0.000270 -0.068297
v  0.000000 -0.021324 -0.064883
v  0.000000 -0.021324 -0.064883
v  0.000000 -0.040166 -0.055239
v  0.000000 -0.040166 -0.055239
v  0.000000 -0.055124 -0.040324
v  0.000000 -0.055124 -0.040324
v  0.000000 -0.064896 -0.021289
v  0.000000 -0.064896 -0.021289

vt  0.304348 0.500000 0.000000
vt  0.304348 0.500000 0.000000
vt  0.304348 0.500000 0.000000
vt  0.000000 0.500000 0.000000
vt  0.000000 0.500000 0.000000
vt  0.000000 0.500000 0.000000
vt  0.000000 0.601614 0.000000
vt  0.000000 0.601614 0.000000
vt  0.000000 0.703010 0.000000
vt  0.000000 0.703010 0.000000
vt  0.000000 0.802975 0.000000
vt  0.000000 0.802975 0.000000
vt  0.000000 0.902509 0.000000
vt  0.000000 0.902509 0.000000
vt  1.000000 1.000000 0.000000
vt  1.000000 1.000000 0.000000
vt  1.000000 0.899931 0.000000
vt  1.000000 0.899931 0.000000
vt  1.000000 0.800633 0.000000
vt  1.000000 0.800633 0.000000
vt  1.000000 0.701542 0.000000
vt  1.000000 0.701542 0.000000
vt  1.000000 0.601157 0.000000
vt  1.000000 0.601157 0.000000
vt  1.000000 0.500000 0.000000
vt  1.000000 0.500000 0.000000
vt  1.000000 0.500000 0.000000
vt  0.695652 0.500000 0.000000
vt  0.695652 0.500000 0.000000
vt  0.695652 0.500000 0.000000
vt  0.689493 0.552085 0.000000
vt  0.689493 0.552085 0.000000
vt  0.670563 0.601192 0.000000
vt  0.670563 0.601192 0.000000
vt  0.637810 0.643921 0.000000
vt  0.637810 0.643921 0.000000
vt  0.590774 0.676225 0.000000
vt  0.590774 0.676225 0.000000
vt  0.531871 0.693858 0.000000
vt  0.531871 0.693858 0.000000
vt  0.468132 0.693858 0.000000
vt  0.468132 0.693858 0.000000
vt  0.409218 0.676221 0.000000
vt  0.409218 0.676221 0.000000
vt  0.362185 0.643916 0.000000
vt  0.362185 0.643916 0.000000
vt  0.329434 0.601186 0.000000
vt  0.329434 0.601186 0.000000
vt  0.310506 0.552080 0.000000
vt  0.310506 0.552080 0.000000
vt  0.689494 0.447920 0.000000
vt  0.689494 0.447920 0.000000
vt  0.670566 0.398814 0.000000
vt  0.670566 0.398814 0.000000
vt  0.637815 0.356084 0.000000
vt  0.637815 0.356084 0.000000
vt  0.590782 0.323779 0.000000
vt  0.590782 0.323779 0.000000
vt  0.531868 0.306142 0.000000
vt  0.531868 0.306142 0.000000
vt  0.468129 0.306142 0.000000
vt  0.468129 0.306142 0.000000
vt  0.409226 0.323775 0.000000
vt  0.409226 0.323775 0.000000
vt  0.362190 0.356079 0.000000
vt  0.362190 0.356079 0.000000
vt  0.329437 0.398808 0.000000
vt  0.329437 0.398808 0.000000
vt  0.310507 0.447915 0.000000
vt  0.310507 0.447915 0.000000
vt  1.000000 0.398386 0.000000
vt  1.000000 0.398386 0.000000
vt  1.000000 0.296990 0.000000
vt  1.000000 0.296990 0.000000
vt  1.000000 0.197025 0.000000
vt  1.000000 0.197025 0.000000
vt  1.000000 0.097491 0.000000
vt  1.000000 0.097491 0.000000
vt  0.000000 0.000000 0.000000
vt  0.000000 0.000000 0.000000
vt  0.000000 0.100069 0.000000
vt  0.000000 0.100069 0.000000
vt  0.000000 0.199367 0.000000
vt  0.000000 0.199367 0.000000
vt  0.000000 0.298458 0.000000
vt  0.000000 0.298458 0.000000
vt  0.000000 0.398843 0.000000
vt  0.000000 0.398843 0.000000

vn  -0.576432 -0.817145 0.000000
vn  1.000000 0.000000 0.000000
vn  -0.576432 -0.817145 0.000000
vn  -0.576432 -0.817145 0.000000
vn  -0.576432 -0.817145 0.000000
vn  -1.000000 0.000000 0.000000
vn  -0.576432 -0.776066 0.255827
vn  -1.000000 0.000000 0.000000
vn  -0.576432 -0.657292 0.485483
vn  -1.000000 0.000000 0.000000
vn  -0.576432 -0.475698 0.664407
vn  -1.000000 0.000000 0.000000
vn  -0.576432 -0.248855 0.778330
vn  -1.000000 0.000000 0.000000
vn  -0.576432 0.003228 0.817139
vn  -1.000000 0.000000 0.000000
vn  -0.576432 0.255134 0.776294
vn  -1.000000 0.000000 0.000000
vn  -0.576432 0.480561 0.660898
vn  -1.000000 0.000000 0.000000
vn  -0.576432 0.659519 0.482453
vn  -1.000000 0.000000 0.000000
vn  -0.576432 0.776432 0.254713
vn  -1.000000 0.000000 0.000000
vn  -0.576432 0.817145 -0.000000
vn  -0.576432 0.817145 -0.000000
vn  -1.000000 0.000000 0.000000
vn  -0.576432 0.817145 -0.000000
vn  1.000000 0.000000 0.000000
vn  -0.576432 0.817145 -0.000000
vn  -0.576432 0.784034 0.230253
vn  1.000000 0.000000 0.000000
vn  -0.576432 0.687389 0.441839
vn  1.000000 0.000000 0.000000
vn  -0.576432 0.535045 0.617619
vn  1.000000 0.000000 0.000000
vn  -0.576432 0.339376 0.743337
vn  1.000000 0.000000 0.000000
vn  -0.576432 0.116295 0.808827
vn  1.000000 0.000000 0.000000
vn  -0.576432 -0.116286 0.808828
vn  1.000000 0.000000 0.000000
vn  -0.576432 -0.339409 0.743322
vn  1.000000 0.000000 0.000000
vn  -0.576432 -0.535069 0.617597
vn  1.000000 0.000000 0.000000
vn  -0.576432 -0.687405 0.441814
vn  1.000000 0.000000 0.000000
vn  -0.576432 -0.784041 0.230231
vn  1.000000 0.000000 0.000000
vn  1.000000 0.000000 0.000000
vn  -0.576432 0.784041 -0.230231
vn  1.000000 0.000000 0.000000
vn  -0.576432 0.687405 -0.441814
vn  1.000000 0.000000 0.000000
vn  -0.576432 0.535069 -0.617597
vn  1.000000 0.000000 0.000000
vn  -0.576432 0.339409 -0.743322
vn  1.000000 0.000000 0.000000
vn  -0.576432 0.116286 -0.808828
vn  1.000000 0.000000 0.000000
vn  -0.576432 -0.116295 -0.808827
vn  1.000000 0.000000 0.000000
vn  -0.576432 -0.339376 -0.743337
vn  1.000000 0.000000 0.000000
vn  -0.576432 -0.535045 -0.617619
vn  1.000000 0.000000 0.000000
vn  -0.576432 -0.687389 -0.441839
vn  1.000000 0.000000 0.000000
vn  -0.576432 -0.784034 -0.230253
vn  -0.576432 0.776066 -0.255827
vn  -1.000000 0.000000 0.000000
vn  -0.576432 0.657292 -0.485483
vn  -1.000000 0.000000 0.000000
vn  -0.576432 0.475698 -0.664407
vn  -1.000000 0.000000 0.000000
vn  -0.576432 0.248855 -0.778330
vn  -1.000000 0.000000 0.000000
vn  -0.576432 -0.003228 -0.817139
vn  -1.000000 0.000000 0.000000
vn  -0.576432 -0.255134 -0.776294
vn  -1.000000 0.000000 0.000000
vn  -0.576432 -0.480561 -0.660898
vn  -1.000000 0.000000 0.000000
vn  -0.576432 -0.659519 -0.482453
vn  -1.000000 0.000000 0.000000
vn  -0.576432 -0.776432 -0.254713
vn  -1.000000 0.000000 0.000000


g 0
g 1
usemtl DEFAULT_MTL
f 49/49/49  4/4/4  1/1/1
f 87/87/87  3/3/3  5/5/5
f 69/69/69  50/50/50  2/2/2
f 87/87/87  70/70/70  3/3/3
f 49/49/49  7/7/7  4/4/4
f 88/88/88  6/6/6  8/8/8
f 47/47/47  9/9/9  7/7/7
f 86/86/86  8/8/8  10/10/10
f 49/49/49  47/47/47  7/7/7
f 88/88/88  8/8/8  86/86/86
f 45/45/45  11/11/11  9/9/9
f 84/84/84  10/10/10  12/12/12
f 47/47/47  45/45/45  9/9/9
f 86/86/86  10/10/10  84/84/84
f 43/43/43  13/13/13  11/11/11
f 82/82/82  12/12/12  14/14/14
f 45/45/45  43/43/43  11/11/11
f 84/84/84  12/12/12  82/82/82
f 41/41/41  15/15/15  13/13/13
f 80/80/80  14/14/14  16/16/16
f 43/43/43  41/41/41  13/13/13
f 82/82/82  14/14/14  80/80/80
f 39/39/39  17/17/17  15/15/15
f 78/78/78  16/16/16  18/18/18
f 41/41/41  39/39/39  15/15/15
f 80/80/80  16/16/16  78/78/78
f 37/37/37  19/19/19  17/17/17
f 76/76/76  18/18/18  20/20/20
f 39/39/39  37/37/37  17/17/17
f 78/78/78  18/18/18  76/76/76
f 35/35/35  21/21/21  19/19/19
f 74/74/74  20/20/20  22/22/22
f 37/37/37  35/35/35  19/19/19
f 76/76/76  20/20/20  74/74/74
f 33/33/33  23/23/23  21/21/21
f 72/72/72  22/22/22  24/24/24
f 35/35/35  33/33/33  21/21/21
f 74/74/74  22/22/22  72/72/72
f 28/28/28  25/25/25  23/23/23
f 72/72/72  24/24/24  27/27/27
f 31/31/31  28/28/28  23/23/23
f 33/33/33  31/31/31  23/23/23
f 52/52/52  26/26/26  30/30/30
f 71/71/71  26/26/26  52/52/52
f 51/51/51  29/29/29  32/32/32
f 53/53/53  32/32/32  34/34/34
f 53/53/53  51/51/51  32/32/32
f 55/55/55  34/34/34  36/36/36
f 55/55/55  53/53/53  34/34/34
f 57/57/57  36/36/36  38/38/38
f 57/57/57  55/55/55  36/36/36
f 57/57/57  38/38/38  40/40/40
f 59/59/59  40/40/40  42/42/42
f 59/59/59  57/57/57  40/40/40
f 61/61/61  42/42/42  44/44/44
f 61/61/61  59/59/59  42/42/42
f 65/65/65  44/44/44  46/46/46
f 63/63/63  61/61/61  44/44/44
f 65/65/65  63/63/63  44/44/44
f 67/67/67  46/46/46  48/48/48
f 67/67/67  65/65/65  46/46/46
f 69/69/69  48/48/48  50/50/50
f 69/69/69  67/67/67  48/48/48
f 71/71/71  52/52/52  54/54/54
f 73/73/73  54/54/54  56/56/56
f 73/73/73  71/71/71  54/54/54
f 75/75/75  56/56/56  58/58/58
f 75/75/75  73/73/73  56/56/56
f 77/77/77  58/58/58  60/60/60
f 77/77/77  75/75/75  58/58/58
f 79/79/79  60/60/60  62/62/62
f 79/79/79  77/77/77  60/60/60
f 81/81/81  62/62/62  64/64/64
f 81/81/81  79/79/79  62/62/62
f 83/83/83  64/64/64  66/66/66
f 83/83/83  81/81/81  64/64/64
f 85/85/85  66/66/66  68/68/68
f 85/85/85  83/83/83  66/66/66
f 87/87/87  68/68/68  70/70/70
f 87/87/87  85/85/85  68/68/68
